<svg width="86" height="86" viewBox="0 0 86 86" fill="none" xmlns="http://www.w3.org/2000/svg">
<circle cx="43" cy="43" r="43" fill="#3282F6"/>
<path d="M46 64C48.7578 64 51.4885 63.4568 54.0364 62.4015C56.5842 61.3461 58.8992 59.7993 60.8492 57.8492C62.7993 55.8992 64.3461 53.5842 65.4015 51.0363C66.4568 48.4885 67 45.7578 67 43C67 40.2422 66.4568 37.5115 65.4015 34.9636C64.3461 32.4158 62.7993 30.1008 60.8492 28.1508C58.8992 26.2007 56.5842 24.6539 54.0363 23.5985C51.4885 22.5432 48.7578 22 46 22L46 43V64Z" fill="white"/>
<path d="M25 64C27.7578 64 30.4885 63.4568 33.0364 62.4015C35.5842 61.3461 37.8992 59.7993 39.8492 57.8492C41.7993 55.8992 43.3461 53.5842 44.4015 51.0364C45.4568 48.4885 46 45.7578 46 43C46 40.2422 45.4568 37.5115 44.4015 34.9636C43.3461 32.4158 41.7993 30.1008 39.8492 28.1508C37.8992 26.2007 35.5842 24.6539 33.0364 23.5985C30.4885 22.5432 27.7578 22 25 22L25 43L25 64Z" fill="white"/>
</svg>
